<svg width="513" height="513" viewBox="0 0 513 513" fill="none" xmlns="http://www.w3.org/2000/svg">
<rect x="0.5" y="0.5" width="512" height="512" rx="256" fill="white" stroke="black"/>
<path d="M450.64 107.399C366.797 95.4965 195.059 213.988 235.007 264.837C274.955 315.687 436.191 210.911 450.64 107.399Z" fill="#ABCFF9"/>
<path d="M59.3409 110.206C143.184 98.3032 314.919 216.794 274.972 267.644C235.024 318.494 73.7898 213.718 59.3409 110.206Z" fill="#ABCFF9"/>
<path d="M450.639 195.324C366.478 183.377 194.716 299.463 235.013 349.603C275.309 399.742 436.597 297.12 450.639 195.324Z" fill="#BBABF9"/>
<path d="M59.342 198.131C143.502 186.183 315.262 302.269 274.966 352.409C234.67 402.549 73.3838 299.926 59.342 198.131Z" fill="#BBABF9"/>
<path d="M450.639 280.348C366.478 268.401 194.716 384.487 235.013 434.627C275.309 484.766 436.597 382.144 450.639 280.348Z" fill="#F9C7AB"/>
<path d="M59.342 283.155C143.502 271.207 315.262 387.293 274.966 437.433C234.67 487.573 73.3838 384.95 59.342 283.155Z" fill="#F9C7AB"/>
<path d="M281.4 432.8C296.067 432.8 309.267 430.4 321 425.6C333 420.8 344.333 414.133 355 405.6L363 414.4C351.267 425.333 335.933 434.533 317 442C298.333 449.2 277.667 452.8 255 452.8C210.2 452.8 173.4 441.067 144.6 417.6C115.8 393.867 101.4 356 101.4 304C101.4 255.733 115.667 220.267 144.2 197.6C173 174.667 210.6 163.2 257 163.2C275.667 163.2 294.067 164.933 312.2 168.4C330.333 171.867 344.6 176.133 355 181.2L349.4 250H338.2C330.733 227.333 320.6 209.2 307.8 195.6C295.267 181.733 278.467 174.8 257.4 174.8C233.133 174.8 215.667 184.8 205 204.8C194.6 224.533 189.4 254.133 189.4 293.6C189.4 340.267 196.2 375.2 209.8 398.4C223.4 421.333 247.267 432.8 281.4 432.8Z" fill="black"/>
</svg>
